<svg xmlns="http://www.w3.org/2000/svg"  viewBox="0 0 72 72" width="48px" height="48px"><path d="M 36 12 C 22.745 12 12 22.745 12 36 C 12 49.255 22.745 60 36 60 C 49.255 60 60 49.255 60 36 C 60 22.745 49.255 12 36 12 z M 36 20 C 44.837 20 52 27.163 52 36 C 52 44.837 44.837 52 36 52 C 27.163 52 20 44.837 20 36 C 20 27.163 27.163 20 36 20 z M 44.132812 28.210938 C 43.676063 28.158297 43.102187 28.282672 42.460938 28.513672 C 41.288937 28.935672 26.308359 35.296062 25.443359 35.664062 C 24.623359 36.013063 23.847656 36.393312 23.847656 36.945312 C 23.847656 37.332313 24.077938 37.549391 24.710938 37.775391 C 25.369937 38.010391 27.029766 38.513203 28.009766 38.783203 C 28.953766 39.043203 30.026906 38.817359 30.628906 38.443359 C 31.266906 38.046359 38.634109 33.117547 39.162109 32.685547 C 39.690109 32.253547 40.111688 32.808234 39.679688 33.240234 C 39.247687 33.672234 34.192391 38.579766 33.525391 39.259766 C 32.715391 40.084766 33.289031 40.93825 33.832031 41.28125 C 34.452031 41.67225 38.913938 44.664531 39.585938 45.144531 C 40.257938 45.625531 40.9375 45.841797 41.5625 45.841797 C 42.1875 45.841797 42.515172 45.020406 42.826172 44.066406 C 43.189172 42.950406 44.895469 31.821906 45.105469 29.628906 C 45.168469 28.964906 44.959828 28.521219 44.548828 28.324219 C 44.424578 28.264469 44.285062 28.228484 44.132812 28.210938 z"/></svg>